<?xml version="1.0" encoding="UTF-8" standalone="no"?>
<!-- Created with Inkscape (http://www.inkscape.org/) -->

<svg
   width="255.99998"
   height="255.99998"
   viewBox="0 0 67.733328 67.733329"
   version="1.1"
   id="svg1"
   xmlns="http://www.w3.org/2000/svg"
   xmlns:svg="http://www.w3.org/2000/svg">
  <defs
     id="defs1" />
  <g
     id="layer1"
     style="display:none">
    <rect
       style="fill:#ffffff;stroke-width:0.107339;stroke-linecap:round;stroke-linejoin:round;paint-order:markers fill stroke"
       id="rect2"
       width="110.14918"
       height="90.645882"
       x="-29.04797"
       y="-17.042454"
       ry="0" />
  </g>
  <g
     id="layer2"
     style="display:none">
    <path
       style="display:inline;fill:#14161d;fill-opacity:1;stroke-width:0.260888;stroke-linecap:round;stroke-linejoin:round;paint-order:markers fill stroke"
       d="m 25.566308,25.415638 c 0,0 -1.905,0 -1.905,2.116666 0,2.116667 0,14.816666 0,14.816666 0,0 0,2.116667 1.905,2.116667 1.905,0 15.239999,0 15.239999,0 0,0 1.905,0 1.905,-2.116667 0,-2.116666 0,-14.816666 0,-14.816666 0,0 0,-2.116666 -1.905,-2.116666 -1.905,0 -15.239999,0 -15.239999,0 z"
       id="path9" />
    <path
       style="display:inline;fill:#14161d;fill-opacity:1;stroke-width:0.260888;stroke-linecap:round;stroke-linejoin:round;paint-order:markers fill stroke"
       d="m 1.980596,25.209852 c 0,0 -1.90499998,0 -1.90499998,2.116666 v 14.816666 c 0,0 0,2.116667 1.90499998,2.116667 h 15.239998 c 0,0 1.905,0 1.905,-2.116667 V 27.326518 c 0,0 -0.211666,-2.116666 -2.116666,-2.116666 z"
       id="path9-1" />
    <path
       style="fill:#000000;stroke-width:0.275;stroke-linecap:round;stroke-linejoin:round;paint-order:markers fill stroke"
       d="m 4.2333337,54.91668 c 0,0 -2.1166667,0 -2.1166667,2.116666 v 7.408332 c 0,0 0,2.116666 2.1166667,2.116666 h 6.3499993 c 0,0 2.116667,0 2.116667,-2.116666 -2.11962,0.0077 -8.4666663,0 -8.4666663,0 z"
       id="path6-4" />
    <path
       style="fill:#000000;stroke-width:0.275;stroke-linecap:round;stroke-linejoin:round;paint-order:markers fill stroke"
       d="m -7.408333,54.916678 v 7.40833 H 0 v -1.058333 h -5.2916663 v -1.058331 h 3.1749997 V 58.091678 H -5.2916663 V 57.033344 H 0 c 0,0 0,-2.116666 -2.1166666,-2.116666 -2.1166664,0 -5.2916664,0 -5.2916664,0 z"
       id="path7" />
    <path
       style="fill:#000000;stroke-width:0.293413;stroke-linecap:round;stroke-linejoin:round;paint-order:markers fill stroke"
       d="m 4.7625004,54.916678 v 8.995833 L 12.7,63.912513 V 61.663551 H 7.0303573 V 60.539074 L 12.7,60.573718 V 58.32476 L 7.0303573,58.29012 V 57.16564 H 12.7 c 0,0 0,-2.248958 -2.267858,-2.248958 z"
       id="path8" />
    <path
       style="fill:#61619e;fill-opacity:1;stroke-width:0.275;stroke-linecap:round;stroke-linejoin:round;paint-order:markers fill stroke"
       d="m 21.166665,54.916678 h -2.116666 v 9.524998 c 0,0 0,2.116666 2.116666,2.116666 l 8.466667,2e-6 v -2.116668 h -8.466667 z"
       id="path6-4-5" />
    <path
       style="fill:#8080f7;fill-opacity:1;stroke-width:0.293413;stroke-linecap:round;stroke-linejoin:round;paint-order:markers fill stroke"
       d="m 21.695832,54.916676 v 8.995833 l 7.9375,2e-6 v -2.248962 h -5.669643 v -1.124477 l 5.669643,0.03464 v -2.248958 l -5.669643,-0.03464 v -1.12448 h 5.669643 v -2.248956 z"
       id="path8-5" />
    <path
       style="fill:#61619e;fill-opacity:1;stroke-width:0.418064;stroke-linecap:round;stroke-linejoin:round;paint-order:markers fill stroke"
       d="M 5.5789284,25.209853 H 2.1922626 v 13.758331 c 0,0 0,3.057407 3.3866658,3.057407 l 13.5466666,3e-6 v -3.05741 H 5.5789284 Z"
       id="path6-4-5-2" />
    <path
       style="fill:#8080f7;fill-opacity:1;stroke-width:0.446056;stroke-linecap:round;stroke-linejoin:round;paint-order:markers fill stroke"
       d="m 6.4255956,25.20985 v 12.993982 l 12.6999994,3e-6 v -3.248501 h -9.071429 v -1.624245 l 9.071429,0.05004 v -3.248495 l -9.071429,-0.05004 v -1.624249 h 9.071429 c 0,0 0.371066,-3.248493 -2.116667,-3.248493 z"
       id="path8-5-1" />
    <path
       style="fill:#61619e;fill-opacity:1;stroke-width:0.275;stroke-linecap:round;stroke-linejoin:round;paint-order:markers fill stroke"
       d="m 30.011309,29.119807 c 0,0 -2.116668,0 -2.116668,2.116666 v 7.408332 c 0,0 0,2.116666 2.116668,2.116666 h 6.349999 c 0,0 2.116666,0 2.116666,-2.116666 -2.119619,0.0077 -8.466666,0 -8.466666,0 z"
       id="path6-4-6" />
    <path
       style="fill:#8080f7;fill-opacity:1;stroke-width:0.293413;stroke-linecap:round;stroke-linejoin:round;paint-order:markers fill stroke"
       d="m 30.540475,29.119805 v 8.995833 l 7.937499,2e-6 v -2.248962 h -5.669642 v -1.124477 l 5.669642,0.03464 v -2.248958 l -5.669642,-0.03464 v -1.12448 h 5.669642 c 0,0 0,-2.248958 -2.267857,-2.248958 z"
       id="path8-6" />
    <path
       style="fill:#14161d;fill-opacity:1;stroke-width:0.260888;stroke-linecap:round;stroke-linejoin:round;paint-order:markers fill stroke"
       d="m 26.057678,3.5875128 c 0,0 -1.905,0 -1.905,2.116666 0,2.116667 0,14.8166662 0,14.8166662 0,0 0,2.116667 1.905,2.116667 1.905,0 15.239999,0 15.239999,0 0,0 1.905,0 1.905,-2.116667 0,-2.116666 0,-14.8166662 0,-14.8166662 0,0 0,-2.116666 -1.905,-2.116666 -1.905,0 -15.239999,0 -15.239999,0 z"
       id="path9-5" />
    <path
       style="fill:#8080f7;fill-opacity:1;stroke-width:0.275;stroke-linecap:round;stroke-linejoin:round;paint-order:markers fill stroke"
       d="m 30.502679,7.2916818 c 0,0 -2.116668,0 -2.116668,2.116666 V 16.81668 c 0,0 0,2.116666 2.116668,2.116666 h 6.349999 c 0,0 2.116666,0 2.116666,-2.116666 -2.119619,0.0077 -8.466666,0 -8.466666,0 z"
       id="path6-4-6-3" />
    <path
       style="fill:#8080f7;fill-opacity:1;stroke-width:0.293413;stroke-linecap:round;stroke-linejoin:round;paint-order:markers fill stroke"
       d="m 31.031845,7.2916798 v 8.9958332 l 7.937499,2e-6 v -2.248962 h -5.669642 v -1.124477 l 5.669642,0.03464 v -2.248958 l -5.669642,-0.03464 V 9.5406378 h 5.669642 c 0,0 0,-2.248958 -2.267857,-2.248958 z"
       id="path8-6-0" />
    <path
       style="fill:#14161d;fill-opacity:1;stroke-width:0.260888;stroke-linecap:round;stroke-linejoin:round;paint-order:markers fill stroke"
       d="m 47.942498,25.283343 c 0,0 -1.905,0 -1.905,2.116666 0,2.116667 0,14.816666 0,14.816666 0,0 0,2.116667 1.905,2.116667 1.905,0 15.239999,0 15.239999,0 0,0 1.905,0 1.905,-2.116667 0,-2.116666 0,-14.816666 0,-14.816666 0,0 0,-2.116666 -1.905,-2.116666 -1.905,0 -15.239999,0 -15.239999,0 z"
       id="path9-2" />
    <path
       style="fill:#00be86;fill-opacity:1;stroke-width:0.275;stroke-linecap:round;stroke-linejoin:round;paint-order:markers fill stroke"
       d="m 52.387499,28.987512 c 0,0 -2.116668,0 -2.116668,2.116666 v 7.408332 c 0,0 0,2.116666 2.116668,2.116666 h 6.349999 c 0,0 2.116666,0 2.116666,-2.116666 -2.119619,0.0077 -8.466666,0 -8.466666,0 z"
       id="path6-4-6-2" />
    <path
       style="fill:#8080f7;fill-opacity:1;stroke-width:0.293413;stroke-linecap:round;stroke-linejoin:round;paint-order:markers fill stroke"
       d="m 52.916665,28.98751 v 8.995833 l 7.937499,2e-6 v -2.248962 h -5.669642 v -1.124477 l 5.669642,0.03464 v -2.248958 l -5.669642,-0.03464 v -1.12448 h 5.669642 c 0,0 0,-2.248958 -2.267857,-2.248958 z"
       id="path8-6-7" />
    <path
       style="fill:#14161d;fill-opacity:1;stroke-width:0.260888;stroke-linecap:round;stroke-linejoin:round;paint-order:markers fill stroke"
       d="m 48.471665,3.5875126 c 0,0 -1.905,0 -1.905,2.116666 0,2.116667 0,14.8166664 0,14.8166664 0,0 0,2.116667 1.905,2.116667 1.905,0 15.239999,0 15.239999,0 0,0 1.905,0 1.905,-2.116667 0,-2.116666 0,-14.8166664 0,-14.8166664 0,0 0,-2.116666 -1.905,-2.116666 -1.905,0 -15.239999,0 -15.239999,0 z"
       id="path9-2-9" />
    <path
       style="fill:#8080f7;fill-opacity:1;stroke-width:0.275;stroke-linecap:round;stroke-linejoin:round;paint-order:markers fill stroke"
       d="m 52.916666,7.2916816 c 0,0 -2.116668,0 -2.116668,2.116666 V 16.81668 c 0,0 0,2.116666 2.116668,2.116666 h 6.349999 c 0,0 2.116666,0 2.116666,-2.116666 -2.119619,0.0077 -8.466666,0 -8.466666,0 z"
       id="path6-4-6-2-5" />
    <path
       style="fill:#00be86;fill-opacity:1;stroke-width:0.293413;stroke-linecap:round;stroke-linejoin:round;paint-order:markers fill stroke"
       d="m 53.445832,7.2916796 v 8.9958334 l 7.937499,2e-6 v -2.248962 h -5.669642 v -1.124477 l 5.669642,0.03464 v -2.248958 l -5.669642,-0.03464 V 9.5406376 h 5.669642 c 0,0 0,-2.248958 -2.267857,-2.248958 z"
       id="path8-6-7-6" />
  </g>
  <g
     id="layer4">
    <path
       style="fill:#14161d;fill-opacity:1;stroke-width:0.927605;stroke-linecap:round;stroke-linejoin:round;paint-order:markers fill stroke"
       d="m 7.1966653,-0.1166532 c 0,0 -6.77333398,0 -6.77333398,7.5259247 0,7.5259285 0,52.6814815 0,52.6814815 0,0 0,7.525927 6.77333398,7.525927 6.7733327,0 54.1866657,0 54.1866657,0 0,0 6.773333,0 6.773333,-7.525927 0,-7.525924 0,-52.6814815 0,-52.6814815 0,0 0,-7.5259247 -6.773333,-7.5259247 -6.773334,0 -54.1866657,0 -54.1866657,0 z"
       id="path9-4" />
  </g>
  <g
     id="layer3">
    <g
       id="g11">
      <path
         style="fill:#61619e;fill-opacity:1;stroke-width:0.977774;stroke-linecap:round;stroke-linejoin:round;paint-order:markers fill stroke"
         d="m 22.577782,13.17038 c 0,0 -7.525931,0 -7.525931,7.525924 v 26.340737 c 0,0 0,7.525924 7.525931,7.525924 h 22.577775 c 0,0 7.525924,0 7.525924,-7.525924 -7.536423,0.02738 -30.103704,0 -30.103704,0 z"
         id="path6-4-6-9" />
      <path
         style="fill:#8080f7;fill-opacity:1;stroke-width:1.04325;stroke-linecap:round;stroke-linejoin:round;paint-order:markers fill stroke"
         d="m 24.45926,13.170372 v 31.985186 l 28.222221,8e-6 v -7.99631 H 32.522752 V 33.161114 L 52.681481,33.28428 V 25.287985 L 32.522752,25.16482 v -3.998151 h 20.158729 c 0,0 0,-7.996297 -8.063491,-7.996297 z"
         id="path8-6-5" />
    </g>
  </g>
</svg>
