<?xml version="1.0" encoding="UTF-8" standalone="no"?>
<!-- Created with Inkscape (http://www.inkscape.org/) -->

<svg
   width="256"
   height="256"
   viewBox="0 0 67.733332 67.733333"
   version="1.1"
   id="svg1"
   inkscape:export-batch-path="/Users/andongni/Desktop"
   inkscape:export-batch-name="lexicardio_logo_split"
   inkscape:export-filename="lexicardio_logo.svg"
   inkscape:export-xdpi="96"
   inkscape:export-ydpi="96"
   inkscape:version="1.4 (e7c3feb1, 2024-10-09)"
   sodipodi:docname="lexicardio_logo_v1.svg"
   xmlns:inkscape="http://www.inkscape.org/namespaces/inkscape"
   xmlns:sodipodi="http://sodipodi.sourceforge.net/DTD/sodipodi-0.dtd"
   xmlns="http://www.w3.org/2000/svg"
   xmlns:svg="http://www.w3.org/2000/svg">
  <sodipodi:namedview
     id="namedview1"
     pagecolor="#505050"
     bordercolor="#ffffff"
     borderopacity="1"
     inkscape:showpageshadow="0"
     inkscape:pageopacity="0"
     inkscape:pagecheckerboard="1"
     inkscape:deskcolor="#505050"
     inkscape:document-units="mm"
     inkscape:lockguides="false"
     showgrid="true"
     showguides="false"
     inkscape:zoom="2.2629282"
     inkscape:cx="119.09348"
     inkscape:cy="136.10684"
     inkscape:window-width="1512"
     inkscape:window-height="945"
     inkscape:window-x="0"
     inkscape:window-y="578"
     inkscape:window-maximized="0"
     inkscape:current-layer="svg1">
    <inkscape:grid
       id="grid2"
       units="px"
       originx="0"
       originy="256"
       spacingx="1.0583333"
       spacingy="1.0583333"
       empcolor="#0099e5"
       empopacity="0.30196078"
       color="#0099e5"
       opacity="0.14901961"
       empspacing="2"
       enabled="true"
       visible="true"
       dotted="false"
       snapvisiblegridlinesonly="true" />
  </sodipodi:namedview>
  <defs
     id="defs1" />
  <g
     inkscape:label="圖層 1"
     inkscape:groupmode="layer"
     id="layer1"
     sodipodi:insensitive="true"
     style="display:inline">
    <rect
       style="fill:#ffffff;stroke-width:0.107339;stroke-linecap:round;stroke-linejoin:round;paint-order:markers fill stroke"
       id="rect2"
       width="110.14918"
       height="90.645882"
       x="-29.04797"
       y="-17.042454"
       ry="0" />
  </g>
  <g
     inkscape:groupmode="layer"
     id="layer2"
     inkscape:label="圖層 2"
     style="display:inline">
    <path
       style="fill:#000000;stroke-width:0.275;stroke-linecap:round;stroke-linejoin:round;paint-order:markers fill stroke"
       d="m -12.7,69.103727 c 0,0 -2.123448,0.01879 -2.161031,2.142239 -0.03758,2.123448 -0.01879,6.33276 -0.01879,6.33276 0,0 0.05637,2.067073 2.104656,2.085863 2.048281,0.01879 6.3515515,0.03758 6.3515515,0.03758 0,0 2.0294896,0.15033 2.1046558,-2.161032 -2.0482811,0.01879 -8.4562073,0.01879 -8.4562073,0.01879 z"
       id="path5" />
    <path
       style="display:inline;fill:#14161d;fill-opacity:1;stroke-width:0.260888;stroke-linecap:round;stroke-linejoin:round;paint-order:markers fill stroke"
       d="m 25.566308,25.415638 c 0,0 -1.905,0 -1.905,2.116666 0,2.116667 0,14.816666 0,14.816666 0,0 0,2.116667 1.905,2.116667 1.905,0 15.239999,0 15.239999,0 0,0 1.905,0 1.905,-2.116667 0,-2.116666 0,-14.816666 0,-14.816666 0,0 0,-2.116666 -1.905,-2.116666 -1.905,0 -15.239999,0 -15.239999,0 z"
       id="path9" />
    <path
       style="display:inline;fill:#14161d;fill-opacity:1;stroke-width:0.260888;stroke-linecap:round;stroke-linejoin:round;paint-order:markers fill stroke"
       d="m 1.980596,25.209852 c 0,0 -1.90499998,0 -1.90499998,2.116666 v 14.816666 c 0,0 0,2.116667 1.90499998,2.116667 h 15.239998 c 0,0 1.905,0 1.905,-2.116667 V 27.326518 c 0,0 -0.211666,-2.116666 -2.116666,-2.116666 z"
       id="path9-1"
       sodipodi:nodetypes="cscscscsc" />
    <path
       style="fill:#000000;stroke-width:0.275;stroke-linecap:round;stroke-linejoin:round;paint-order:markers fill stroke"
       d="m -8.4666663,54.916678 c 0,0 -2.1166667,0 -2.1166667,2.116666 0,2.116667 0,6.349998 0,6.349998 0,0 0,2.116666 2.1166667,2.116666 2.1166666,0 6.3499997,0 6.3499997,0 0,0 2.1166666,0 2.1166666,-2.116666 -2.1196202,0.0077 -8.4666663,0 -8.4666663,0 z"
       id="path6" />
    <path
       style="fill:#000000;stroke-width:0.275;stroke-linecap:round;stroke-linejoin:round;paint-order:markers fill stroke"
       d="m 4.2333337,54.91668 c 0,0 -2.1166667,0 -2.1166667,2.116666 v 7.408332 c 0,0 0,2.116666 2.1166667,2.116666 h 6.3499993 c 0,0 2.116667,0 2.116667,-2.116666 -2.11962,0.0077 -8.4666663,0 -8.4666663,0 z"
       id="path6-4"
       sodipodi:nodetypes="cscscccc" />
    <path
       style="fill:#000000;stroke-width:0.275;stroke-linecap:round;stroke-linejoin:round;paint-order:markers fill stroke"
       d="m -7.408333,54.916678 v 7.40833 H 0 v -1.058333 h -5.2916663 v -1.058331 h 3.1749997 V 58.091678 H -5.2916663 V 57.033344 H 0 c 0,0 0,-2.116666 -2.1166666,-2.116666 -2.1166664,0 -5.2916664,0 -5.2916664,0 z"
       id="path7" />
    <path
       style="fill:#000000;stroke-width:0.293413;stroke-linecap:round;stroke-linejoin:round;paint-order:markers fill stroke"
       d="m 4.7625004,54.916678 v 8.995833 L 12.7,63.912513 V 61.663551 H 7.0303573 V 60.539074 L 12.7,60.573718 V 58.32476 L 7.0303573,58.29012 V 57.16564 H 12.7 c 0,0 0,-2.248958 -2.267858,-2.248958 z"
       id="path8"
       sodipodi:nodetypes="cccccccccccsc" />
    <path
       style="fill:#61619e;fill-opacity:1;stroke-width:0.275;stroke-linecap:round;stroke-linejoin:round;paint-order:markers fill stroke"
       d="m 21.166665,54.916678 h -2.116666 v 9.524998 c 0,0 0,2.116666 2.116666,2.116666 l 8.466667,2e-6 v -2.116668 h -8.466667 z"
       id="path6-4-5"
       sodipodi:nodetypes="cccscccc" />
    <path
       style="fill:#8080f7;fill-opacity:1;stroke-width:0.293413;stroke-linecap:round;stroke-linejoin:round;paint-order:markers fill stroke"
       d="m 21.695832,54.916676 v 8.995833 l 7.9375,2e-6 v -2.248962 h -5.669643 v -1.124477 l 5.669643,0.03464 v -2.248958 l -5.669643,-0.03464 v -1.12448 h 5.669643 v -2.248956 z"
       id="path8-5"
       sodipodi:nodetypes="ccccccccccccc" />
    <path
       style="fill:#61619e;fill-opacity:1;stroke-width:0.418064;stroke-linecap:round;stroke-linejoin:round;paint-order:markers fill stroke"
       d="M 5.5789284,25.209853 H 2.1922626 v 13.758331 c 0,0 0,3.057407 3.3866658,3.057407 l 13.5466666,3e-6 v -3.05741 H 5.5789284 Z"
       id="path6-4-5-2"
       sodipodi:nodetypes="cccscccc" />
    <path
       style="fill:#8080f7;fill-opacity:1;stroke-width:0.446056;stroke-linecap:round;stroke-linejoin:round;paint-order:markers fill stroke"
       d="m 6.4255956,25.20985 v 12.993982 l 12.6999994,3e-6 v -3.248501 h -9.071429 v -1.624245 l 9.071429,0.05004 v -3.248495 l -9.071429,-0.05004 v -1.624249 h 9.071429 c 0,0 0.371066,-3.248493 -2.116667,-3.248493 z"
       id="path8-5-1"
       sodipodi:nodetypes="cccccccccccsc" />
    <path
       style="fill:#61619e;fill-opacity:1;stroke-width:0.275;stroke-linecap:round;stroke-linejoin:round;paint-order:markers fill stroke"
       d="m 30.011309,29.119807 c 0,0 -2.116668,0 -2.116668,2.116666 v 7.408332 c 0,0 0,2.116666 2.116668,2.116666 h 6.349999 c 0,0 2.116666,0 2.116666,-2.116666 -2.119619,0.0077 -8.466666,0 -8.466666,0 z"
       id="path6-4-6"
       sodipodi:nodetypes="cscscccc" />
    <path
       style="fill:#8080f7;fill-opacity:1;stroke-width:0.293413;stroke-linecap:round;stroke-linejoin:round;paint-order:markers fill stroke"
       d="m 30.540475,29.119805 v 8.995833 l 7.937499,2e-6 v -2.248962 h -5.669642 v -1.124477 l 5.669642,0.03464 v -2.248958 l -5.669642,-0.03464 v -1.12448 h 5.669642 c 0,0 0,-2.248958 -2.267857,-2.248958 z"
       id="path8-6"
       sodipodi:nodetypes="cccccccccccsc" />
    <path
       style="fill:#14161d;fill-opacity:1;stroke-width:0.260888;stroke-linecap:round;stroke-linejoin:round;paint-order:markers fill stroke"
       d="m 26.057678,3.5875128 c 0,0 -1.905,0 -1.905,2.116666 0,2.116667 0,14.8166662 0,14.8166662 0,0 0,2.116667 1.905,2.116667 1.905,0 15.239999,0 15.239999,0 0,0 1.905,0 1.905,-2.116667 0,-2.116666 0,-14.8166662 0,-14.8166662 0,0 0,-2.116666 -1.905,-2.116666 -1.905,0 -15.239999,0 -15.239999,0 z"
       id="path9-5" />
    <path
       style="fill:#8080f7;fill-opacity:1;stroke-width:0.275;stroke-linecap:round;stroke-linejoin:round;paint-order:markers fill stroke"
       d="m 30.502679,7.2916818 c 0,0 -2.116668,0 -2.116668,2.116666 V 16.81668 c 0,0 0,2.116666 2.116668,2.116666 h 6.349999 c 0,0 2.116666,0 2.116666,-2.116666 -2.119619,0.0077 -8.466666,0 -8.466666,0 z"
       id="path6-4-6-3"
       sodipodi:nodetypes="cscscccc" />
    <path
       style="fill:#8080f7;fill-opacity:1;stroke-width:0.293413;stroke-linecap:round;stroke-linejoin:round;paint-order:markers fill stroke"
       d="m 31.031845,7.2916798 v 8.9958332 l 7.937499,2e-6 v -2.248962 h -5.669642 v -1.124477 l 5.669642,0.03464 v -2.248958 l -5.669642,-0.03464 V 9.5406378 h 5.669642 c 0,0 0,-2.248958 -2.267857,-2.248958 z"
       id="path8-6-0"
       sodipodi:nodetypes="cccccccccccsc" />
    <path
       style="fill:#14161d;fill-opacity:1;stroke-width:0.260888;stroke-linecap:round;stroke-linejoin:round;paint-order:markers fill stroke"
       d="m 47.942498,25.283343 c 0,0 -1.905,0 -1.905,2.116666 0,2.116667 0,14.816666 0,14.816666 0,0 0,2.116667 1.905,2.116667 1.905,0 15.239999,0 15.239999,0 0,0 1.905,0 1.905,-2.116667 0,-2.116666 0,-14.816666 0,-14.816666 0,0 0,-2.116666 -1.905,-2.116666 -1.905,0 -15.239999,0 -15.239999,0 z"
       id="path9-2" />
    <path
       style="fill:#00be86;fill-opacity:1;stroke-width:0.275;stroke-linecap:round;stroke-linejoin:round;paint-order:markers fill stroke"
       d="m 52.387499,28.987512 c 0,0 -2.116668,0 -2.116668,2.116666 v 7.408332 c 0,0 0,2.116666 2.116668,2.116666 h 6.349999 c 0,0 2.116666,0 2.116666,-2.116666 -2.119619,0.0077 -8.466666,0 -8.466666,0 z"
       id="path6-4-6-2"
       sodipodi:nodetypes="cscscccc" />
    <path
       style="fill:#8080f7;fill-opacity:1;stroke-width:0.293413;stroke-linecap:round;stroke-linejoin:round;paint-order:markers fill stroke"
       d="m 52.916665,28.98751 v 8.995833 l 7.937499,2e-6 v -2.248962 h -5.669642 v -1.124477 l 5.669642,0.03464 v -2.248958 l -5.669642,-0.03464 v -1.12448 h 5.669642 c 0,0 0,-2.248958 -2.267857,-2.248958 z"
       id="path8-6-7"
       sodipodi:nodetypes="cccccccccccsc" />
    <path
       style="fill:#14161d;fill-opacity:1;stroke-width:0.260888;stroke-linecap:round;stroke-linejoin:round;paint-order:markers fill stroke"
       d="m 48.471665,3.5875126 c 0,0 -1.905,0 -1.905,2.116666 0,2.116667 0,14.8166664 0,14.8166664 0,0 0,2.116667 1.905,2.116667 1.905,0 15.239999,0 15.239999,0 0,0 1.905,0 1.905,-2.116667 0,-2.116666 0,-14.8166664 0,-14.8166664 0,0 0,-2.116666 -1.905,-2.116666 -1.905,0 -15.239999,0 -15.239999,0 z"
       id="path9-2-9" />
    <path
       style="fill:#8080f7;fill-opacity:1;stroke-width:0.275;stroke-linecap:round;stroke-linejoin:round;paint-order:markers fill stroke"
       d="m 52.916666,7.2916816 c 0,0 -2.116668,0 -2.116668,2.116666 V 16.81668 c 0,0 0,2.116666 2.116668,2.116666 h 6.349999 c 0,0 2.116666,0 2.116666,-2.116666 -2.119619,0.0077 -8.466666,0 -8.466666,0 z"
       id="path6-4-6-2-5"
       sodipodi:nodetypes="cscscccc" />
    <path
       style="fill:#00be86;fill-opacity:1;stroke-width:0.293413;stroke-linecap:round;stroke-linejoin:round;paint-order:markers fill stroke"
       d="m 53.445832,7.2916796 v 8.9958334 l 7.937499,2e-6 v -2.248962 h -5.669642 v -1.124477 l 5.669642,0.03464 v -2.248958 l -5.669642,-0.03464 V 9.5406376 h 5.669642 c 0,0 0,-2.248958 -2.267857,-2.248958 z"
       id="path8-6-7-6"
       sodipodi:nodetypes="cccccccccccsc" />
  </g>
  <g
     inkscape:groupmode="layer"
     id="layer4"
     inkscape:label="Layer 2"
     style="display:none">
    <path
       style="fill:#14161d;fill-opacity:1;stroke-width:0.927605;stroke-linecap:round;stroke-linejoin:round;paint-order:markers fill stroke"
       d="m 7.1966653,-0.1166532 c 0,0 -6.77333398,0 -6.77333398,7.5259247 0,7.5259285 0,52.6814815 0,52.6814815 0,0 0,7.525927 6.77333398,7.525927 6.7733327,0 54.1866657,0 54.1866657,0 0,0 6.773333,0 6.773333,-7.525927 0,-7.525924 0,-52.6814815 0,-52.6814815 0,0 0,-7.5259247 -6.773333,-7.5259247 -6.773334,0 -54.1866657,0 -54.1866657,0 z"
       id="path9-4" />
  </g>
  <g
     inkscape:groupmode="layer"
     id="layer3"
     inkscape:label="Layer 1"
     style="display:none">
    <g
       id="g11">
      <path
         style="fill:#61619e;fill-opacity:1;stroke-width:0.977774;stroke-linecap:round;stroke-linejoin:round;paint-order:markers fill stroke"
         d="m 22.577782,13.17038 c 0,0 -7.525931,0 -7.525931,7.525924 v 26.340737 c 0,0 0,7.525924 7.525931,7.525924 h 22.577775 c 0,0 7.525924,0 7.525924,-7.525924 -7.536423,0.02738 -30.103704,0 -30.103704,0 z"
         id="path6-4-6-9"
         sodipodi:nodetypes="cscscccc" />
      <path
         style="fill:#8080f7;fill-opacity:1;stroke-width:1.04325;stroke-linecap:round;stroke-linejoin:round;paint-order:markers fill stroke"
         d="m 24.45926,13.170372 v 31.985186 l 28.222221,8e-6 v -7.99631 H 32.522752 V 33.161114 L 52.681481,33.28428 V 25.287985 L 32.522752,25.16482 v -3.998151 h 20.158729 c 0,0 0,-7.996297 -8.063491,-7.996297 z"
         id="path8-6-5"
         sodipodi:nodetypes="cccccccccccsc" />
    </g>
  </g>
</svg>
